<?xml version="1.0" encoding="utf-8"?>
<!-- Generator: Adobe Illustrator 24.3.0, SVG Export Plug-In . SVG Version: 6.00 Build 0)  -->
<svg version="1.1" id="Layer_1" xmlns="http://www.w3.org/2000/svg" xmlns:xlink="http://www.w3.org/1999/xlink" x="0px" y="0px"
	 viewBox="0 0 161.9 27" style="enable-background:new 0 0 161.9 27;" xml:space="preserve">
<style type="text/css">
	.st0{fill:#1F59A1;}
</style>
<g>
	<path d="M30.3,13.8h0.9c0.1,1.3,0.7,2.4,1.7,3.3c0.9,0.8,2.1,1.2,3.4,1.2c0.5,0,1-0.1,1.5-0.2c0.4-0.1,0.8-0.3,1.2-0.6
		c0.3-0.2,0.6-0.5,0.7-0.9c0.2-0.3,0.3-0.7,0.3-1.1c0-0.3-0.1-0.6-0.2-0.9c-0.1-0.3-0.4-0.5-0.6-0.7c-0.4-0.3-0.8-0.5-1.3-0.7
		c-0.5-0.2-1.2-0.5-2.1-0.9c-1.4-0.5-2.7-1.3-3.8-2.3c-0.8-0.8-1.3-1.9-1.2-3.1c0-0.7,0.1-1.3,0.4-1.9c0.3-0.6,0.6-1.1,1.1-1.5
		c0.5-0.4,1.1-0.8,1.7-1c0.7-0.3,1.5-0.4,2.2-0.4c0.7,0,1.4,0.1,2.1,0.3c0.7,0.2,1.4,0.6,2,1l0.4-1.1h0.5l0.2,4.7h-0.9
		c-0.3-1.1-0.8-2-1.7-2.8c-0.7-0.6-1.6-1-2.6-1c-0.8,0-1.6,0.2-2.2,0.7c-0.5,0.4-0.9,1-0.8,1.7c0,0.3,0,0.6,0.2,0.8
		c0.1,0.3,0.3,0.5,0.6,0.7c0.4,0.3,0.7,0.5,1.1,0.7c0.5,0.2,1.1,0.5,1.9,0.8c0.9,0.3,1.8,0.7,2.6,1.2c0.6,0.4,1.2,0.8,1.8,1.3
		c0.4,0.4,0.8,0.9,1,1.5c0.2,0.5,0.3,1.1,0.3,1.7c0,0.7-0.2,1.4-0.5,2c-0.3,0.7-0.8,1.3-1.3,1.7c-0.6,0.5-1.3,0.8-2.1,1
		c-0.9,0.3-1.8,0.4-2.7,0.4c-0.8,0-1.6-0.1-2.4-0.4c-0.8-0.3-1.5-0.7-2.2-1.2l-0.4,1.3h-0.5L30.3,13.8z"/>
	<path d="M54.5,14.3h-6.2c-0.5,1-0.9,2.1-1,3.2c0,0.4,0.2,0.7,0.5,0.8c0.5,0.1,1,0.2,1.5,0.2v0.9h-6v-0.9c0.3,0,0.6-0.1,0.9-0.2
		c0.2-0.1,0.5-0.2,0.7-0.3c0.2-0.1,0.4-0.3,0.5-0.5c0.2-0.2,0.3-0.5,0.4-0.8l5.7-14.5h1.6l5.3,12.8c0.3,0.7,0.6,1.3,0.8,1.8
		c0.2,0.4,0.4,0.7,0.7,1c0.2,0.2,0.5,0.4,0.8,0.5c0.4,0.1,0.8,0.2,1.2,0.2v0.9h-8.3v-0.9c0.5,0,1-0.1,1.5-0.2
		c0.3-0.1,0.5-0.4,0.5-0.7c0-0.3-0.1-0.5-0.2-0.8c-0.1-0.3-0.2-0.7-0.4-1.2L54.5,14.3z M48.8,13H54l-2.5-6.7h-0.1L48.8,13z"/>
	<path d="M77.4,12.6c0,1.1-0.1,2.2-0.4,3.2c-0.2,0.8-0.7,1.6-1.3,2.2c-0.6,0.6-1.4,1-2.2,1.2c-1.1,0.3-2.2,0.4-3.2,0.4
		c-2.4,0-4.1-0.5-5.2-1.5c-1.1-1-1.6-2.6-1.6-4.7v-6c0-0.6,0-1,0-1.4s0-0.7-0.1-1c0-0.2-0.1-0.4-0.1-0.7c0-0.1-0.1-0.3-0.2-0.4
		c-0.1-0.2-0.3-0.3-0.6-0.4c-0.4-0.1-0.8-0.1-1.1-0.1V2.5h7.9v0.9c-0.5,0-0.9,0-1.4,0.1c-0.3,0-0.5,0.2-0.7,0.4
		C67.1,4,67,4.1,66.9,4.3c-0.1,0.2-0.1,0.4-0.2,0.7c0,0.3-0.1,0.6-0.1,1c0,0.4,0,0.9,0,1.4v5.8c-0.1,1.3,0.3,2.6,1.1,3.7
		c0.9,0.9,2.1,1.3,3.3,1.2c3,0,4.5-1.7,4.5-5V8c0-0.6,0-1.1,0-1.6c0-0.4-0.1-0.7-0.1-1.1c0-0.3-0.1-0.5-0.2-0.8
		C75.2,4.3,75.1,4.1,75,4c-0.2-0.2-0.5-0.4-0.8-0.5c-0.4-0.1-0.9-0.2-1.3-0.1V2.5H80v0.9c-0.4,0-0.8,0-1.2,0.1
		c-0.3,0.1-0.5,0.2-0.7,0.4c-0.1,0.2-0.2,0.3-0.3,0.5c-0.1,0.3-0.1,0.5-0.2,0.8c0,0.3-0.1,0.7-0.1,1.1c0,0.4,0,1,0,1.6L77.4,12.6z"
		/>
	<path d="M83.2,5.9c0-0.4,0-0.8-0.1-1.2c0-0.3-0.1-0.5-0.3-0.8c-0.2-0.2-0.4-0.3-0.6-0.4c-0.4-0.1-0.7-0.1-1.1-0.1V2.5h7.4v0.9
		c-0.4,0-0.7,0-1.1,0.1c-0.3,0.1-0.5,0.2-0.6,0.4c-0.2,0.2-0.3,0.5-0.3,0.8c0,0.4-0.1,0.9-0.1,1.3v13.4c0.1,1.5-0.4,3.1-1.4,4.2
		c-1.1,1-2.7,1.6-4.2,1.5c-1.1,0.1-2.1-0.2-3.1-0.7c-0.7-0.3-1.1-1-1.1-1.7c0-0.4,0.1-0.7,0.4-1c0.3-0.2,0.6-0.4,1-0.3
		c0.3,0,0.6,0.1,0.8,0.3c0.3,0.3,0.5,0.6,0.7,1c0.2,0.4,0.5,0.7,0.8,1c0.3,0.2,0.6,0.3,0.9,0.2c0.6,0,1.2-0.4,1.4-1
		c0.4-0.9,0.6-1.9,0.5-2.9L83.2,5.9z"/>
	<path d="M100.3,14.3h-6.2c-0.5,1-0.9,2.1-1,3.2c0,0.4,0.2,0.7,0.5,0.8c0.5,0.1,1,0.2,1.5,0.2v0.9h-6v-0.9c0.3,0,0.6-0.1,0.9-0.2
		c0.2-0.1,0.5-0.2,0.7-0.3c0.2-0.1,0.4-0.3,0.5-0.5c0.2-0.2,0.3-0.5,0.4-0.8l5.7-14.5h1.6l5.2,12.8c0.3,0.7,0.6,1.3,0.8,1.8
		c0.2,0.4,0.4,0.7,0.7,1c0.2,0.2,0.5,0.4,0.8,0.5c0.4,0.1,0.8,0.2,1.2,0.2v0.9h-8.3v-0.9c0.5,0,1-0.1,1.5-0.2
		c0.3-0.1,0.5-0.4,0.5-0.7c0-0.3-0.1-0.5-0.1-0.8c-0.1-0.3-0.2-0.7-0.4-1.2L100.3,14.3z M94.6,13h5.2l-2.5-6.7h-0.1L94.6,13z"/>
	<path d="M122,19.7l-9.8-13.9h-0.1v9.5c0,0.6,0,1.2,0.1,1.7c0,0.4,0.1,0.7,0.3,1c0.2,0.2,0.4,0.4,0.7,0.5c0.4,0.1,0.8,0.1,1.2,0.1
		v0.9h-6.5v-0.9c0.4,0,0.9-0.1,1.3-0.2c0.3-0.1,0.6-0.2,0.8-0.4c0.2-0.3,0.3-0.6,0.4-0.9c0.1-0.5,0.1-1.1,0.1-1.6V6.5
		c0-0.5,0-1-0.1-1.5c0-0.4-0.1-0.7-0.3-1c-0.2-0.2-0.4-0.4-0.7-0.5c-0.4-0.1-0.8-0.2-1.2-0.2V2.5h6.1l8.9,12.8h0.1V6.7
		c0-0.6,0-1.2-0.1-1.7c0-0.4-0.1-0.7-0.3-1c-0.2-0.2-0.4-0.4-0.7-0.5c-0.4-0.1-0.8-0.1-1.2-0.1V2.5h6.5v0.9c-0.4,0-0.9,0-1.3,0.1
		c-0.3,0.1-0.6,0.2-0.8,0.5c-0.2,0.3-0.3,0.6-0.4,1C125,5.5,125,6.1,125,6.6v13.1H122z"/>
	<path d="M130.4,5.2c-0.2-0.3-0.4-0.7-0.6-1c-0.2-0.2-0.3-0.4-0.6-0.6c-0.2-0.1-0.4-0.2-0.6-0.3c-0.2-0.1-0.5-0.1-0.8-0.1V2.4h7.4
		v0.9c-0.4,0-0.9,0-1.3,0.2c-0.2,0.1-0.4,0.3-0.4,0.5c0,0.2,0.1,0.4,0.1,0.5c0.1,0.2,0.2,0.5,0.4,0.8l3.1,6h0.1l2.8-4.6
		c0.5-0.8,0.8-1.4,1-1.8c0.2-0.3,0.3-0.7,0.3-1c0-0.2-0.1-0.4-0.3-0.5c-0.4-0.1-0.8-0.2-1.3-0.1V2.4h5.5v0.9c-0.3,0-0.6,0-0.9,0.2
		c-0.3,0.1-0.6,0.3-0.8,0.6c-0.4,0.4-0.7,0.8-1,1.2c-0.4,0.5-0.8,1.2-1.3,2.1l-3.2,5.5v2.4c0,0.6,0,1.2,0.1,1.8c0,0.4,0.2,0.7,0.4,1
		c0.2,0.2,0.4,0.4,0.7,0.4c0.4,0.1,0.8,0.1,1.1,0.1v0.9h-7.8v-0.9c0.4,0,0.8,0,1.1-0.1c0.3-0.1,0.5-0.2,0.7-0.4
		c0.2-0.3,0.3-0.6,0.4-1c0.1-0.5,0.1-1.1,0.1-1.7v-2L130.4,5.2z"/>
	<path d="M154.5,14.3h-6.2c-0.5,1-0.9,2.1-1,3.2c-0.1,0.4,0.2,0.7,0.5,0.8c0.5,0.1,1,0.2,1.5,0.2v0.9h-6v-0.9c0.3,0,0.6-0.1,0.9-0.2
		c0.2-0.1,0.5-0.2,0.7-0.3c0.2-0.1,0.4-0.3,0.5-0.5c0.2-0.2,0.3-0.5,0.4-0.8l5.7-14.5h1.6l5.3,12.8c0.3,0.7,0.6,1.3,0.8,1.8
		c0.2,0.4,0.4,0.7,0.7,1c0.2,0.2,0.5,0.4,0.8,0.5c0.4,0.1,0.8,0.2,1.2,0.2v0.9h-8.3v-0.9c0.5,0,1-0.1,1.5-0.2
		c0.3-0.1,0.5-0.4,0.5-0.7c0-0.3-0.1-0.5-0.2-0.8c-0.1-0.3-0.2-0.7-0.4-1.2L154.5,14.3z M148.8,13h5.2l-2.5-6.7h-0.1L148.8,13z"/>
	<polygon class="st0" points="0,11.9 0,23.5 10.1,23.5 	"/>
	<polygon class="st0" points="21.9,11.8 21.9,0.1 11.8,0.1 	"/>
	<path class="st0" d="M0,6.8c0,0-0.2-3.3,2-5.2S7.8,0,7.8,0L22,17c0,0,0.4,3.5-2.1,5.3c-1.6,1.1-3.6,1.5-5.5,1.2L0,6.8z"/>
	<path d="M90.4,24.9v1.5c0,0.1,0,0.1,0,0.2c0,0,0.1,0.1,0.2,0.1v0.1h-1.5v-0.1c0.1,0,0.1,0,0.2-0.1c0,0,0.1-0.1,0.1-0.2v-4
		c0-0.1,0-0.1-0.1-0.2c0,0-0.1-0.1-0.2-0.1V22H92c0.3,0,0.5,0,0.8,0.1c0.2,0,0.4,0.1,0.5,0.2c0.2,0.1,0.3,0.3,0.4,0.5
		c0.1,0.2,0.1,0.4,0.1,0.6c0,0.3-0.1,0.6-0.2,0.8c-0.1,0.2-0.3,0.4-0.6,0.4c-0.3,0.1-0.7,0.1-1,0.1L90.4,24.9z M90.4,24.1h1.6
		c0.2,0,0.4,0,0.6-0.1c0.1,0,0.2-0.1,0.2-0.2c0-0.1,0.1-0.2,0.1-0.3c0-0.1,0-0.2-0.1-0.3c0-0.1-0.1-0.2-0.2-0.2
		c-0.2-0.1-0.4-0.1-0.6-0.1h-1.6V24.1z"/>
	<path d="M98.8,26h2.9c0.1,0,0.1,0,0.2,0c0,0,0.1-0.1,0.1-0.2h0.1V27h-0.1c0-0.1,0-0.1-0.1-0.2c-0.1,0-0.1,0-0.2,0h-4.1v-0.1
		c0.1,0,0.1,0,0.2-0.1c0-0.1,0-0.1,0-0.2v-4c0-0.1,0-0.1,0-0.2c-0.1,0-0.1-0.1-0.2-0.1v-0.1H99v0.1c-0.1,0-0.1,0-0.2,0.1
		c0,0.1-0.1,0.1-0.1,0.2L98.8,26z"/>
	<path d="M109.2,25.6h-2.1l-0.3,0.7c0,0.1-0.1,0.1-0.1,0.2c0,0.1,0.1,0.2,0.2,0.2v0.1h-1.6v-0.1c0.1,0,0.1,0,0.2-0.1
		c0.1-0.1,0.1-0.2,0.2-0.3l1.8-3.6c0-0.1,0.1-0.2,0.1-0.3c0-0.1-0.1-0.2-0.2-0.2v-0.1h1.7v0.1c-0.1,0-0.2,0.1-0.2,0.2
		c0,0.1,0,0.2,0.1,0.2l1.8,3.6c0,0.1,0.1,0.2,0.2,0.3c0.1,0.1,0.1,0.1,0.2,0.1v0.1h-1.7v-0.1c0.1,0,0.2-0.1,0.2-0.2
		c0-0.1-0.1-0.2-0.1-0.2L109.2,25.6z M108.9,24.9l-0.8-1.7l-0.8,1.7L108.9,24.9z"/>
	<path d="M116.5,22.9v3.5c0,0.1,0,0.1,0,0.2c0,0,0.1,0.1,0.2,0.1v0.1h-1.4v-0.1c0.1,0,0.1,0,0.2-0.1c0-0.1,0-0.1,0-0.2v-3.5H114
		c-0.1,0-0.1,0-0.2,0c0,0-0.1,0.1-0.1,0.2h-0.1v-1.2h0.1c0,0.1,0,0.1,0.1,0.2c0.1,0,0.1,0,0.2,0h3.9c0.1,0,0.1,0,0.2,0
		c0,0,0.1-0.1,0.1-0.2h0.1v1.2h-0.1c0-0.1,0-0.1-0.1-0.2c-0.1,0-0.1,0-0.2,0L116.5,22.9z"/>
	<path d="M123,24.7v1.7c0,0.1,0,0.1,0.1,0.2c0.1,0,0.1,0.1,0.2,0.1v0.1h-1.4v-0.1c0.1,0,0.1,0,0.2-0.1c0,0,0.1-0.1,0.1-0.2v-3.9
		c0-0.1,0-0.1-0.1-0.2c0,0-0.1-0.1-0.2-0.1v-0.1h4.1c0,0,0.1,0,0.1,0c0,0,0.1-0.1,0.1-0.2h0.1v1.2h-0.1c0-0.1,0-0.1-0.1-0.2
		c0,0-0.1,0-0.1,0H123v1.1h1.9c0.1,0,0.1,0,0.2,0c0,0,0.1-0.1,0.1-0.2h0.1v1h-0.1c0-0.1,0-0.1-0.1-0.2c-0.1,0-0.1,0-0.2,0L123,24.7z
		"/>
	<path d="M132.4,22c0.7,0,1.4,0.2,1.9,0.7c0.5,0.5,0.8,1.1,0.8,1.8c0,0.4-0.1,0.9-0.4,1.2c-0.5,0.8-1.4,1.2-2.3,1.1
		c-0.7,0-1.4-0.2-1.9-0.7c-0.3-0.2-0.5-0.5-0.6-0.8c-0.1-0.3-0.2-0.6-0.2-0.9c0-0.5,0.1-0.9,0.4-1.3C130.6,22.4,131.4,22,132.4,22z
		 M132.4,22.8c-0.4,0-0.8,0.1-1.1,0.4c-0.7,0.6-0.7,1.7-0.1,2.4c0,0,0,0,0.1,0.1c0.7,0.5,1.6,0.5,2.2,0c0.2-0.2,0.3-0.4,0.4-0.6
		c0.1-0.2,0.1-0.4,0.1-0.6c0-0.5-0.2-0.9-0.5-1.2C133.2,23,132.8,22.8,132.4,22.8z"/>
	<path d="M140.1,24.9v1.6c0,0.1,0,0.1,0.1,0.2c0,0,0.1,0.1,0.2,0.1v0.1h-1.5v-0.1c0.1,0,0.1,0,0.2-0.1c0,0,0.1-0.1,0.1-0.2v-4
		c0-0.1,0-0.1-0.1-0.2c0,0-0.1-0.1-0.2-0.1v-0.1h2.9c0.3,0,0.6,0,0.8,0.1c0.2,0,0.4,0.1,0.6,0.2c0.2,0.1,0.3,0.3,0.4,0.5
		c0.1,0.2,0.1,0.4,0.1,0.6c0,0.8-0.4,1.2-1.3,1.3l0.9,1.3c0.1,0.2,0.2,0.3,0.4,0.4c0.1,0.1,0.2,0.1,0.3,0.1v0.1h-1.7v-0.1
		c0.1,0,0.2-0.1,0.2-0.1c0-0.1-0.1-0.2-0.2-0.3l-0.9-1.4L140.1,24.9z M140.1,24.1h1.6h0.5c0.1,0,0.2,0,0.3-0.1
		c0.2-0.1,0.3-0.3,0.3-0.5c0-0.2-0.1-0.4-0.3-0.5c-0.1,0-0.2-0.1-0.3-0.1c-0.2,0-0.3,0-0.5,0h-1.6V24.1z"/>
	<path d="M150.4,26.8l-1.7-3.2v2.9c0,0.1,0,0.1,0,0.2c0.1,0,0.1,0.1,0.2,0.1v0.1h-1.4v-0.1c0.1,0,0.1,0,0.2-0.1c0-0.1,0-0.1,0-0.2
		v-4c0,0,0-0.1,0-0.2c-0.1,0-0.1,0-0.2,0v-0.1h1.8v0.1c-0.1,0-0.2,0.1-0.2,0.2c0,0.1,0,0.1,0.1,0.2l1.3,2.4l1.3-2.4
		c0-0.1,0.1-0.1,0.1-0.2c0-0.1-0.1-0.2-0.2-0.2v-0.1h1.8v0.1c-0.1,0-0.1,0-0.2,0.1c0,0,0,0.1,0,0.2v4c0,0.1,0,0.1,0,0.2
		c0,0,0.1,0.1,0.2,0.1v0.1H152v-0.1c0.1,0,0.1,0,0.2-0.1c0,0,0.1-0.1,0.1-0.2v-2.9L150.4,26.8z"/>
	<path d="M161.7,22.5l-0.6,1.1H161v-0.1c0-0.1-0.1-0.2-0.2-0.2c-0.4-0.3-0.9-0.4-1.4-0.4c-0.2,0-0.4,0-0.6,0.1
		c-0.1,0-0.2,0.1-0.3,0.2c-0.1,0.1-0.1,0.2-0.1,0.3c0,0.2,0.1,0.3,0.3,0.4c0.2,0,0.5,0.1,0.7,0.1h0.5c0.3,0,0.5,0.1,0.8,0.2
		c0.2,0,0.4,0.1,0.5,0.2c0.2,0.1,0.3,0.3,0.4,0.4c0.1,0.2,0.1,0.4,0.1,0.6c0,0.3-0.1,0.6-0.3,0.9c-0.2,0.3-0.5,0.4-0.9,0.5
		c-0.3,0.1-0.7,0.1-1,0.1c-0.6,0-1.3-0.2-1.8-0.4c-0.1,0-0.1-0.1-0.2-0.1c0,0-0.1,0-0.1,0.1l-0.1-0.1l0.5-1.2h0.1l0,0
		c0,0.1,0.1,0.2,0.1,0.3c0.2,0.2,0.4,0.3,0.7,0.3c0.3,0.1,0.6,0.1,0.9,0.1c0.3,0,0.5,0,0.8-0.2c0.1-0.1,0.2-0.1,0.3-0.2
		c0.1-0.1,0.1-0.2,0.1-0.3c0-0.2-0.1-0.3-0.2-0.3c-0.2-0.1-0.5-0.1-0.7-0.1l-0.5-0.1c-0.4,0-0.6-0.1-0.8-0.1c-0.2,0-0.3-0.1-0.4-0.2
		c-0.2-0.1-0.4-0.3-0.5-0.5c-0.1-0.2-0.2-0.4-0.2-0.6c0-0.4,0.1-0.7,0.4-1c0.4-0.4,1-0.6,1.6-0.5c0.3,0,0.6,0,0.8,0.1
		c0.3,0.1,0.7,0.2,1,0.3c0.1,0,0.2,0.1,0.2,0.1c0.1,0,0.1,0,0.2-0.1L161.7,22.5z"/>
</g>
</svg>
